<?xml version="1.0" encoding="UTF-8"?>
<!DOCTYPE svg PUBLIC "-//W3C//DTD SVG 1.1//EN">
<!-- Creator: CorelDRAW 2021.5 -->
<svg xmlns="http://www.w3.org/2000/svg" xml:space="preserve" width="84.6666mm" height="10.8372mm" version="1.1" style="shape-rendering:geometricPrecision; text-rendering:geometricPrecision; image-rendering:optimizeQuality; fill-rule:evenodd; clip-rule:evenodd; fill: currentColor"
viewBox="0 0 8466.66 1083.72">
 <defs>
  <style type="text/css">
   <![CDATA[
    .fil0 {fill:white;fill-rule:nonzero}
   ]]>
  </style>
 </defs>
 <g id="Layer_x0020_1">
  <metadata id="CorelCorpID_0Corel-Layer"/>
  <path class="fil0" d="M777.1 747.32c2.55,27.35 27.21,47.11 54.96,44.06 27.71,-3.02 48.11,-27.67 45.5,-55.07 -21.97,-228.77 -199.68,-485.51 -358.78,-601.48 -22.27,-16.25 -53.87,-11.34 -70.66,10.92 -16.78,22.24 -12.31,53.46 9.92,69.68 138.59,101.05 300,333.13 319.07,531.88l-0.01 0.01zm-127.16 86.55c23.16,-2.15 40.43,-22.48 38.61,-45.34 -15.43,-192.35 -135.82,-401.79 -299.53,-521.05 -18.59,-13.52 -44.95,-9.45 -59,9.07 -13.96,18.55 -10.26,44.55 8.3,58.11 143.32,104.41 252.85,294.29 266.28,461.79 1.82,22.84 22.12,39.58 45.34,37.42zm-157.82 35.36c18.54,-1.79 32.38,-18.07 30.85,-36.34 -13.57,-163.98 -101.23,-315.16 -260.47,-449.42 -14.04,-11.87 -35.31,-10.05 -47.51,4 -12.19,14.03 -10.73,35.01 3.3,46.83 145.5,122.71 225.42,258.97 237.51,405.08 1.51,18.27 17.75,31.65 36.32,29.85zm42.35 -867.77c295.13,0 534.35,241.41 534.35,539.18 0,297.81 -239.22,539.19 -534.35,539.19 -295.1,0 -534.35,-241.38 -534.35,-539.19 0,-297.77 239.25,-539.18 534.35,-539.18z"/>
  <polygon class="fil0" points="1331.97,826.75 1474.62,826.75 1643,336.51 1516.53,336.51 1412.85,667.71 1409.17,667.71 1304.77,336.51 1163.59,336.51 "/>
  <path id="_1" class="fil0" d="M1791.52 755.26c-23.52,0 -40.43,-9.49 -40.43,-41.59 0,-27.72 12.49,-39.39 41.91,-42.31l44.11 -4.37 0 72.95c-8.08,8.75 -25.73,15.32 -45.59,15.32zm-42.64 78.06c47.06,0 80.88,-13.14 97.06,-35.75l3.67 0 8.83 29.18 103.67 0 0 -267.73c0,-85.36 -57.35,-115.27 -150.73,-115.27 -58.82,0 -108.82,6.57 -147.8,21.89l0 81.7c25.74,-5.83 61.76,-10.94 100,-10.94 54.41,0 73.53,8.03 73.53,48.15l0 15.32 -69.11 10.21c-81.62,10.95 -136.76,37.21 -136.76,116.73 0,72.22 48.52,106.51 117.64,106.51z"/>
  <polygon id="_2" class="fil0" points="2040.79,826.02 2166.53,826.02 2166.53,304.41 2040.79,304.41 "/>
  <path id="_3" class="fil0" d="M2417.25 525.46c36.77,0 55.15,19.7 55.15,74.41l-114.71 0c5.16,-58.36 31.62,-74.41 59.56,-74.41zm13.97 307.86c69.86,0 116.92,-16.78 145.59,-33.56l0 -76.6c-29.41,11.67 -68.38,22.61 -113.23,22.61 -63.98,0 -97.79,-16.78 -105.15,-75.87l233.82 0 0 -32.1c0,-123.28 -47.79,-194.05 -175,-194.05 -113.23,0 -186.03,72.95 -186.03,188.95l0 9.48c0,124.02 65.45,191.14 200,191.14z"/>
  <path id="_4" class="fil0" d="M2654.01 826.02l125.74 0 0 -253.87c20.59,-10.22 49.26,-17.51 82.35,-17.51 10.29,0 24.26,2.92 32.36,4.38l0 -109.43c-4.42,-1.46 -11.77,-2.92 -22.07,-2.92 -39.7,0 -74.26,20.43 -94.12,48.88l-3.66 0 0 -45.23 -120.6 0 0 375.7z"/>
  <path id="_5" class="fil0" d="M2954.74 408.01l127.21 0 0 -94.84 -127.21 0 0 94.84zm0.73 418.74l125.74 0 0 -376.43 -125.74 0 0 376.43z"/>
  <path id="_6" class="fil0" d="M3187.09 826.75l125.74 0 0 -288.89 75 0 0 -86.81 -75 0 0 -22.62c0,-32.1 15.44,-45.96 50.72,-45.96 16.18,0 32.36,2.19 41.92,3.65l0 -76.6c-13.98,-5.11 -44.86,-11.67 -83.09,-11.67 -78.68,0 -135.29,36.47 -135.29,115.99l0 37.21 -47.79 0 0 86.81 47.79 0 0 288.89z"/>
  <path id="_7" class="fil0" d="M3518.71 933.26c80.88,0 119.85,-21.89 145.58,-96.3l146.33 -386.64 -117.65 0 -74.26 203.53 -1.48 0 -71.31 -203.53 -130.89 0 140.44 344.33 -5.88 16.05c-9.56,24.8 -28.68,33.56 -63.23,33.56 -12.51,0 -27.22,-2.19 -40.45,-4.38l0 81.71c14.71,6.56 47.06,11.67 72.8,11.67z"/>
  <path id="_8" class="fil0" d="M4092.23 826.75l45.59 0 0 -320.99 87.49 0 0 -38.66 -87.49 0 0 -51.07c0,-56.17 28.67,-78.06 74.26,-78.06 25.01,0 41.17,4.38 52.95,7.3l0 -33.56c-13.97,-6.57 -33.09,-10.94 -61.03,-10.94 -66.18,0 -111.77,33.55 -111.77,112.34l0 53.99 -55.88 0 0 38.66 55.88 0 0 320.99z"/>
  <path id="_9" class="fil0" d="M4440.02 832.59c96.32,0 163.97,-66.39 163.97,-182.38l0 -9.49c0,-116.72 -63.23,-180.19 -163.24,-180.19 -95.58,0 -163.23,65.66 -163.23,182.38l0 10.21c0,116 63.24,179.47 162.5,179.47zm1.47 -37.94c-65.43,0 -116.17,-37.2 -116.17,-140.07l0 -16.78c0,-90.46 44.85,-140.06 114.7,-140.06 66.18,0 116.18,37.2 116.18,141.52l0 15.32c0,92.65 -45.59,140.07 -114.71,140.07z"/>
  <path id="_10" class="fil0" d="M4687.81 826.75l46.33 0 0 -285.97c25.74,-21.16 63.23,-36.48 101.47,-36.48 6.61,0 16.91,0.73 25.73,2.19l0 -42.31c-4.41,-1.46 -13.97,-2.19 -22.05,-2.19 -42.65,0 -83.09,22.62 -104.42,45.96l-2.93 0 0 -41.58 -44.13 0 0 360.38z"/>
  <path id="_11" class="fil0" d="M5138.55 826.75l47.79 0 0 -202.08 102.94 0c96.33,0 156.62,-51.06 156.62,-145.17 0,-89.73 -50,-142.26 -163.97,-142.26l-143.38 0 0 489.51zm47.79 -241.47l0 -207.91 90.44 0c88.97,0 117.64,33.55 117.64,105.78 0,67.84 -33.09,102.13 -115.43,102.13l-92.65 0z"/>
  <path id="_12" class="fil0" d="M5665.01 832.59c96.32,0 163.97,-66.39 163.97,-182.38l0 -9.49c0,-116.72 -63.23,-180.19 -163.24,-180.19 -95.58,0 -163.23,65.66 -163.23,182.38l0 10.21c0,116 63.24,179.47 162.5,179.47zm1.47 -37.94c-65.43,0 -116.17,-37.2 -116.17,-140.07l0 -16.78c0,-90.46 44.85,-140.06 114.7,-140.06 66.18,0 116.18,37.2 116.18,141.52l0 15.32c0,92.65 -45.59,140.07 -114.71,140.07z"/>
  <path id="_13" class="fil0" d="M6040.74 832.59c51.48,0 86.04,-15.32 110.3,-37.21l2.94 0 4.41 31.37 38.97 0 0 -522.34 -46.32 0 0 182.38c-20.59,-13.13 -52.21,-26.26 -99.27,-26.26 -93.37,0 -160.29,56.17 -160.29,185.3l0 9.48c0,132.78 75,177.28 149.26,177.28zm13.24 -37.21c-67.64,0 -114.7,-36.48 -114.7,-141.53l0 -13.13c0,-102.86 46.32,-140.79 119.85,-140.79 38.23,0 73.53,10.94 91.91,25.53l0 235.63c-19.86,17.51 -51.47,34.29 -97.06,34.29z"/>
  <path id="_14" class="fil0" d="M6446.62 832.59c52.21,0 83.09,-13.86 106.61,-28.45l0 -37.21c-19.84,10.94 -51.46,26.26 -101.46,26.26 -82.36,0 -122.8,-47.42 -122.8,-141.52l0 -16.05c0,-91.19 47.8,-135.69 116.91,-135.69 47.06,0 72.07,8.02 102.95,22.61l0 -37.93c-25.74,-16.05 -52.95,-24.08 -100.01,-24.08 -93.38,0 -167.64,54.72 -167.64,182.38l0 9.48c0,117.46 60.29,180.2 165.44,180.2z"/>
  <path id="_15" class="fil0" d="M6720.15 832.59c50.73,0 83.08,-18.24 101.47,-37.94l2.94 0 4.42 32.1 37.49 0 0 -261.9c0,-72.95 -42.64,-104.32 -120.58,-104.32 -40.44,0 -75,6.57 -106.62,18.97l0 32.83c24.99,-5.84 53.68,-12.4 89.7,-12.4 64.71,0 91.18,16.77 91.18,75.87l0 42.31 -102.94 11.67c-69.85,8.02 -108.82,40.85 -108.82,103.59 0,64.2 46.32,99.22 111.76,99.22zm11.77 -36.48c-46.33,0 -75.74,-22.61 -75.74,-64.2 0,-43.77 23.53,-64.2 73.53,-69.3l90.44 -10.22 0 115.27c-16.92,15.32 -50.73,28.45 -88.23,28.45z"/>
  <path id="_16" class="fil0" d="M7062.8 831.86c80.88,0 126.46,-38.67 126.46,-102.14 0,-62.73 -30.14,-84.62 -97.05,-103.59l-38.97 -10.21c-41.91,-12.4 -58.83,-26.99 -58.83,-61.28 0,-35.75 26.47,-55.44 79.42,-55.44 38.23,0 74.26,9.48 94.85,19.69l0 -37.2c-19.85,-10.22 -50,-21.16 -97.06,-21.16 -81.62,0 -121.32,40.12 -121.32,97.76 0,59.82 33.82,83.89 88.23,97.75l36.77 10.95c49.27,13.13 67.64,28.45 67.64,66.38 0,35.75 -23.53,59.82 -85.29,59.82 -52.21,0 -80.15,-10.94 -110.29,-23.34l0 36.47c27.93,15.32 67.65,25.54 115.44,25.54z"/>
  <path id="_17" class="fil0" d="M7384.85 830.4c29.41,0 46.32,-6.57 58.82,-13.86l0 -30.64c-13.24,4.37 -31.62,7.29 -47.06,7.29 -44.12,0 -55.88,-15.32 -55.88,-51.06l0 -236.37 96.33 0 0 -38.66 -96.33 0 0 -85.36 -46.32 0 0 85.36 -52.94 0 0 38.66 52.94 0 0 242.93c0,58.36 34.56,81.71 90.44,81.71z"/>
  <path id="_18" class="fil0" d="M7671.62 832.59c57.35,0 97.78,-16.05 119.85,-30.64l0 -35.02c-30.15,15.32 -63.98,26.26 -112.51,26.26 -85.29,0 -129.4,-40.12 -130.87,-138.61l254.4 0 0 -26.26c0,-109.43 -45.58,-167.79 -144.11,-167.79 -84.56,0 -158.09,56.17 -158.09,181.65l0 8.76c0,114.53 57.35,181.65 171.33,181.65zm-14.71 -334.85c65.44,0 97.05,37.93 97.05,120.37l-205.14 0c5.88,-89 55.88,-120.37 108.09,-120.37z"/>
  <path id="_19" class="fil0" d="M7887.05 826.75l46.32 0 0 -285.97c25.74,-21.16 63.24,-36.48 101.48,-36.48 6.61,0 16.91,0.73 25.73,2.19l0 -42.31c-4.42,-1.46 -13.97,-2.19 -22.06,-2.19 -42.65,0 -83.09,22.62 -104.41,45.96l-2.94 0 0 -41.58 -44.12 0 0 360.38z"/>
  <path id="_20" class="fil0" d="M8225.29 831.86c80.87,0 126.46,-38.67 126.46,-102.14 0,-62.73 -30.15,-84.62 -97.05,-103.59l-38.98 -10.21c-41.9,-12.4 -58.82,-26.99 -58.82,-61.28 0,-35.75 26.47,-55.44 79.42,-55.44 38.23,0 74.26,9.48 94.85,19.69l0 -37.2c-19.86,-10.22 -50,-21.16 -97.06,-21.16 -81.62,0 -121.32,40.12 -121.32,97.76 0,59.82 33.82,83.89 88.23,97.75l36.77 10.95c49.26,13.13 67.64,28.45 67.64,66.38 0,35.75 -23.53,59.82 -85.29,59.82 -52.21,0 -80.15,-10.94 -110.3,-23.34l0 36.47c27.94,15.32 67.65,25.54 115.45,25.54z"/>
 </g>
</svg>
